# xmcd CD database file
#
# Track frame offsets:
#	150
#	19760
#	41605
#	61783
#	79855
#	98915
#	119788
#	137815
#	152418
#	166633
#
# Disc length: 2490 seconds
#
# Revision: 0
# Processed by: cddbd v1.5.1PL2 Copyright (c) Steve Scherf et al.
# Submitted via: CDex 1.51
#
DISCID=7709b80a
DTITLE=THE ROOSTERZ - NEON BOY
DYEAR=1985
DGENRE=Rock
TTITLE0=Neon Boy
TTITLE1=Stranger In Town
TTITLE2=Une Petite Histories
TTITLE3=Harlem Nocturne
TTITLE4=Out Land
TTITLE5=あの娘はミステリー
TTITLE6=Don't You Cry
TTITLE7=Ｌブ・Ｓイート・Ｄリーム
TTITLE8=マイ・ファニー・フェイス
TTITLE9=白昼夢 スリープウォーカー
EXTD=YEAR: 1985
EXTT0=
EXTT1=
EXTT2=
EXTT3=
EXTT4=
EXTT5=
EXTT6=
EXTT7=
EXTT8=
EXTT9=
PLAYORDER=
